ffmpeg version 2.1.1 Copyright (c) 2000-2013 the FFmpeg developers
  built on Dec 20 2014 10:34:55 with gcc 4.7 (Debian 4.7.2-5)
  configuration: --enable-gpl --enable-nonfree --enable-postproc --enable-pthreads --enable-x11grab --enable-swscale --enable-version3 --enable-shared --disable-yasm --enable-filter=movie --enable-frei0r --enable-libdc1394 --enable-libfaac --enable-libmp3lame --enable-libx264 --enable-libxvid --enable-libfreetype --enable-libvorbis --enable-libgsm --enable-libopencore-amrnb --enable-libopencore-amrwb --enable-libopenjpeg --enable-librtmp --enable-libschroedinger --enable-libspeex --enable-libtheora --enable-libvpx --enable-libvo-amrwbenc --enable-libvo-aacenc --enable-libaacplus --enable-libxavs --enable-bzlib --enable-openssl --enable-gnutls --enable-openal --enable-libv4l2 --enable-libpulse --enable-libmodplug --enable-libass --enable-libcdio --enable-vdpau --enable-libbluray
  libavutil      52. 48.101 / 52. 48.101
  libavcodec     55. 39.101 / 55. 39.101
  libavformat    55. 19.104 / 55. 19.104
  libavdevice    55.  5.100 / 55.  5.100
  libavfilter     3. 90.100 /  3. 90.100
  libswscale      2.  5.101 /  2.  5.101
  libswresample   0. 17.104 /  0. 17.104
  libpostproc    52.  3.100 / 52.  3.100
Input #0, avi, from '/var/www/business-supermarket.co.uk/web/www/temp/0020149001427731882.avi':
  Metadata:
    encoder         : VirtualDubMod 1.5.10.2 (build 2540/release)
  Duration: 00:00:54.60, start: 0.000000, bitrate: 923 kb/s
    Stream #0:0: Video: mpeg4 (Advanced Simple Profile) (XVID / 0x44495658), yuv420p, 640x360 [SAR 1:1 DAR 16:9], 25 tbr, 25 tbn, 25 tbc
    Stream #0:1: Audio: mp3 (U[0][0][0] / 0x0055), 48000 Hz, stereo, s16p, 128 kb/s
Please use -b:a or -b:v, -b is ambiguous
Output #0, flv, to '/var/www/business-supermarket.co.uk/web/www/upload/users/suniel_2/videos/0020149001427731882.flv':
  Metadata:
    encoder         : Lavf55.19.104
    Stream #0:0: Video: flv1 (flv) ([2][0][0][0] / 0x0002), yuv420p, 512x384 [SAR 4:3 DAR 16:9], q=2-31, 1000 kb/s, 1k tbn, 30 tbc
    Stream #0:1: Audio: mp3 (libmp3lame) ([2][0][0][0] / 0x0002), 44100 Hz, stereo, s16p, 128 kb/s
Stream mapping:
  Stream #0:0 -> #0:0 (mpeg4 -> flv)
  Stream #0:1 -> #0:1 (mp3 -> libmp3lame)
Press [q] to stop, [?] for help
[mpeg4 @ 0xd98aa0] Video uses a non-standard and wasteful way to store B-frames ('packed B-frames'). Consider using a tool like VirtualDub or avidemux to fix it.
frame=   60 fps=0.0 q=2.5 size=     464kB time=00:00:02.97 bitrate=1277.2kbits/s    frame=  132 fps=132 q=3.2 size=     972kB time=00:00:05.82 bitrate=1366.4kbits/s    frame=  205 fps=136 q=4.3 size=    1439kB time=00:00:08.75 bitrate=1347.0kbits/s    frame=  273 fps=136 q=5.9 size=    1763kB time=00:00:11.44 bitrate=1261.9kbits/s    frame=  340 fps=136 q=5.2 size=    2104kB time=00:00:14.15 bitrate=1217.4kbits/s    frame=  407 fps=135 q=7.6 size=    2482kB time=00:00:16.85 bitrate=1206.6kbits/s    frame=  476 fps=136 q=5.0 size=    2857kB time=00:00:19.59 bitrate=1194.3kbits/s    frame=  547 fps=136 q=6.7 size=    3242kB time=00:00:22.44 bitrate=1183.6kbits/s    frame=  619 fps=137 q=6.4 size=    3634kB time=00:00:25.31 bitrate=1176.0kbits/s    frame=  691 fps=138 q=5.8 size=    4016kB time=00:00:28.21 bitrate=1166.0kbits/s    frame=  763 fps=138 q=5.7 size=    4412kB time=00:00:31.08 bitrate=1162.5kbits/s    frame=  835 fps=139 q=5.9 size=    4807kB time=00:00:33.96 bitrate=1159.6kbits/s    frame=  903 fps=139 q=8.0 size=    5193kB time=00:00:36.67 bitrate=1159.8kbits/s    frame=  970 fps=138 q=9.3 size=    5547kB time=00:00:39.36 bitrate=1154.4kbits/s    frame= 1037 fps=138 q=8.1 size=    5943kB time=00:00:42.00 bitrate=1159.0kbits/s    frame= 1106 fps=138 q=6.1 size=    6331kB time=00:00:44.77 bitrate=1158.2kbits/s    frame= 1175 fps=138 q=7.1 size=    6706kB time=00:00:47.54 bitrate=1155.5kbits/s    frame= 1245 fps=138 q=7.4 size=    7080kB time=00:00:50.39 bitrate=1150.9kbits/s    frame= 1317 fps=138 q=5.2 size=    7469kB time=00:00:53.23 bitrate=1149.3kbits/s    frame= 1365 fps=139 q=5.6 Lsize=    7732kB time=00:00:54.63 bitrate=1159.4kbits/s    
video:6824kB audio:854kB subtitle:0 global headers:0kB muxing overhead 0.707595%
